<?xml version="1.0" encoding="UTF-8"?>
<svg version="1.1" xmlns="http://www.w3.org/2000/svg" width="512" height="512">
<path d="M0 0 C1.77093531 -0.00322915 3.54187037 -0.00659433 5.31280518 -0.01008606 C9.00720841 -0.01602754 12.70158843 -0.01793137 16.39599609 -0.01733398 C20.12098081 -0.01725313 23.8458415 -0.02413895 27.57080078 -0.0378418 C49.22863103 -0.11623914 70.68977942 0.06612814 92.265625 2.16796875 C93.06158081 2.24367096 93.85753662 2.31937317 94.6776123 2.39736938 C99.05217606 2.82356545 103.40901202 3.33768472 107.765625 3.91796875 C109.04276367 4.0878833 110.31990234 4.25779785 111.63574219 4.43286133 C140.17698907 8.40983374 168.96123889 14.92689564 194.265625 29.16796875 C195.31234375 29.73 196.3590625 30.29203125 197.4375 30.87109375 C205.31512334 35.23848078 212.29762712 40.50030509 219.265625 46.16796875 C220.50505859 47.1734375 220.50505859 47.1734375 221.76953125 48.19921875 C227.71706447 53.24686433 232.51328703 59.00185281 237.265625 65.16796875 C237.92304688 65.998125 238.58046875 66.82828125 239.2578125 67.68359375 C273.96527784 113.12388973 279.40938525 177.69313398 279.43359375 232.90234375 C279.4368229 234.67327906 279.44018808 236.44421412 279.44367981 238.21514893 C279.44962129 241.90955216 279.45152512 245.60393218 279.45092773 249.29833984 C279.45084688 253.02332456 279.4577327 256.74818525 279.47143555 260.47314453 C279.54983289 282.13097478 279.36746561 303.59212317 277.265625 325.16796875 C277.18992279 325.96392456 277.11422058 326.75988037 277.03622437 327.57995605 C276.6100283 331.95451981 276.09590903 336.31135577 275.515625 340.66796875 C275.26075317 342.58367676 275.26075317 342.58367676 275.00073242 344.53808594 C271.02376001 373.07933282 264.50669811 401.86358264 250.265625 427.16796875 C249.70359375 428.2146875 249.1415625 429.26140625 248.5625 430.33984375 C244.19511297 438.21746709 238.93328866 445.19997087 233.265625 452.16796875 C232.5953125 452.99425781 231.925 453.82054687 231.234375 454.671875 C226.18672942 460.61940822 220.43174094 465.41563078 214.265625 470.16796875 C213.43546875 470.82539063 212.6053125 471.4828125 211.75 472.16015625 C166.30970402 506.86762159 101.74045977 512.311729 46.53125 512.3359375 C44.76031469 512.33916665 42.98937963 512.34253183 41.21844482 512.34602356 C37.52404159 512.35196504 33.82966157 512.35386887 30.13525391 512.35327148 C26.41026919 512.35319063 22.6854085 512.36007645 18.96044922 512.3737793 C-2.69738103 512.45217664 -24.15852942 512.26980936 -45.734375 510.16796875 C-46.53033081 510.09226654 -47.32628662 510.01656433 -48.1463623 509.93856812 C-52.52092606 509.51237205 -56.87776202 508.99825278 -61.234375 508.41796875 C-62.51151367 508.2480542 -63.78865234 508.07813965 -65.10449219 507.90307617 C-93.64573907 503.92610376 -122.42998889 497.40904186 -147.734375 483.16796875 C-148.78109375 482.6059375 -149.8278125 482.04390625 -150.90625 481.46484375 C-158.78387334 477.09745672 -165.76637712 471.83563241 -172.734375 466.16796875 C-173.56066406 465.49765625 -174.38695312 464.82734375 -175.23828125 464.13671875 C-181.18581447 459.08907317 -185.98203703 453.33408469 -190.734375 447.16796875 C-191.39179688 446.3378125 -192.04921875 445.50765625 -192.7265625 444.65234375 C-227.43402784 399.21204777 -232.87813525 334.64280352 -232.90234375 279.43359375 C-232.9055729 277.66265844 -232.90893808 275.89172338 -232.91242981 274.12078857 C-232.91837129 270.42638534 -232.92027512 266.73200532 -232.91967773 263.03759766 C-232.91959688 259.31261294 -232.9264827 255.58775225 -232.94018555 251.86279297 C-233.01858289 230.20496272 -232.83621561 208.74381433 -230.734375 187.16796875 C-230.65867279 186.37201294 -230.58297058 185.57605713 -230.50497437 184.75598145 C-230.0787783 180.38141769 -229.56465903 176.02458173 -228.984375 171.66796875 C-228.81446045 170.39083008 -228.6445459 169.11369141 -228.46948242 167.79785156 C-224.49251001 139.25660468 -217.97544811 110.47235486 -203.734375 85.16796875 C-202.89132813 83.59789063 -202.89132813 83.59789063 -202.03125 81.99609375 C-193.23200759 66.12456305 -181.1429954 52.14989719 -166.734375 41.16796875 C-165.97898437 40.5853125 -165.22359375 40.00265625 -164.4453125 39.40234375 C-132.05299608 15.5811901 -91.27784364 7.25790063 -52.109375 2.91796875 C-51.36082245 2.83488464 -50.6122699 2.75180054 -49.84103394 2.66619873 C-33.21088395 0.84707963 -16.72002286 0.00733151 0 0 Z " fill="#00A945" transform="translate(232.734375,-0.16796875)"/>
<path d="M0 0 C112.8954474 0 112.8954474 0 129.125 5.6875 C129.86524414 5.94313721 130.60548828 6.19877441 131.36816406 6.4621582 C157.44040693 15.82750883 179.57935618 35.51513312 191.4375 60.625 C194.58675323 67.56555685 197.17380525 74.58949392 199 82 C199.33644531 83.35158203 199.33644531 83.35158203 199.6796875 84.73046875 C202.34600528 97.6785462 202.562484 113.22301411 199 126 C198.72542969 127.01562012 198.72542969 127.01562012 198.4453125 128.05175781 C190.92480622 155.38322741 175.47606925 177.98933412 151 193 C145.79988479 195.94931908 140.43056408 198.50863511 135 201 C134.15308594 201.40992188 133.30617188 201.81984375 132.43359375 202.2421875 C114.65838465 210.21784654 95.34118741 209.49723236 76.3125 209.25 C67.299375 209.1675 58.28625 209.085 49 209 C49 230.45 49 251.9 49 274 C32.83 274 16.66 274 0 274 C0 183.58 0 93.16 0 0 Z " fill="#FEFEFE" transform="translate(174,119)"/>
<path d="M0 0 C1.77093531 -0.00322915 3.54187037 -0.00659433 5.31280518 -0.01008606 C9.00720841 -0.01602754 12.70158843 -0.01793137 16.39599609 -0.01733398 C20.12098081 -0.01725313 23.8458415 -0.02413895 27.57080078 -0.0378418 C49.22863103 -0.11623914 70.68977942 0.06612814 92.265625 2.16796875 C93.06158081 2.24367096 93.85753662 2.31937317 94.6776123 2.39736938 C99.05217606 2.82356545 103.40901202 3.33768472 107.765625 3.91796875 C109.04276367 4.0878833 110.31990234 4.25779785 111.63574219 4.43286133 C140.17698907 8.40983374 168.96123889 14.92689564 194.265625 29.16796875 C195.31234375 29.73 196.3590625 30.29203125 197.4375 30.87109375 C205.31512334 35.23848078 212.29762712 40.50030509 219.265625 46.16796875 C220.50505859 47.1734375 220.50505859 47.1734375 221.76953125 48.19921875 C227.71706447 53.24686433 232.51328703 59.00185281 237.265625 65.16796875 C237.92304688 65.998125 238.58046875 66.82828125 239.2578125 67.68359375 C273.96527784 113.12388973 279.40938525 177.69313398 279.43359375 232.90234375 C279.4368229 234.67327906 279.44018808 236.44421412 279.44367981 238.21514893 C279.44962129 241.90955216 279.45152512 245.60393218 279.45092773 249.29833984 C279.45084688 253.02332456 279.4577327 256.74818525 279.47143555 260.47314453 C279.54983289 282.13097478 279.36746561 303.59212317 277.265625 325.16796875 C277.18992279 325.96392456 277.11422058 326.75988037 277.03622437 327.57995605 C276.6100283 331.95451981 276.09590903 336.31135577 275.515625 340.66796875 C275.26075317 342.58367676 275.26075317 342.58367676 275.00073242 344.53808594 C271.02376001 373.07933282 264.50669811 401.86358264 250.265625 427.16796875 C249.70359375 428.2146875 249.1415625 429.26140625 248.5625 430.33984375 C244.19511297 438.21746709 238.93328866 445.19997087 233.265625 452.16796875 C232.5953125 452.99425781 231.925 453.82054687 231.234375 454.671875 C226.18672942 460.61940822 220.43174094 465.41563078 214.265625 470.16796875 C213.43546875 470.82539063 212.6053125 471.4828125 211.75 472.16015625 C166.30970402 506.86762159 101.74045977 512.311729 46.53125 512.3359375 C44.76031469 512.33916665 42.98937963 512.34253183 41.21844482 512.34602356 C37.52404159 512.35196504 33.82966157 512.35386887 30.13525391 512.35327148 C26.41026919 512.35319063 22.6854085 512.36007645 18.96044922 512.3737793 C-2.69738103 512.45217664 -24.15852942 512.26980936 -45.734375 510.16796875 C-46.53033081 510.09226654 -47.32628662 510.01656433 -48.1463623 509.93856812 C-52.52092606 509.51237205 -56.87776202 508.99825278 -61.234375 508.41796875 C-62.51151367 508.2480542 -63.78865234 508.07813965 -65.10449219 507.90307617 C-93.64573907 503.92610376 -122.42998889 497.40904186 -147.734375 483.16796875 C-148.78109375 482.6059375 -149.8278125 482.04390625 -150.90625 481.46484375 C-158.78387334 477.09745672 -165.76637712 471.83563241 -172.734375 466.16796875 C-173.56066406 465.49765625 -174.38695312 464.82734375 -175.23828125 464.13671875 C-181.18581447 459.08907317 -185.98203703 453.33408469 -190.734375 447.16796875 C-191.39179688 446.3378125 -192.04921875 445.50765625 -192.7265625 444.65234375 C-227.43402784 399.21204777 -232.87813525 334.64280352 -232.90234375 279.43359375 C-232.9055729 277.66265844 -232.90893808 275.89172338 -232.91242981 274.12078857 C-232.91837129 270.42638534 -232.92027512 266.73200532 -232.91967773 263.03759766 C-232.91959688 259.31261294 -232.9264827 255.58775225 -232.94018555 251.86279297 C-233.01858289 230.20496272 -232.83621561 208.74381433 -230.734375 187.16796875 C-230.65867279 186.37201294 -230.58297058 185.57605713 -230.50497437 184.75598145 C-230.0787783 180.38141769 -229.56465903 176.02458173 -228.984375 171.66796875 C-228.81446045 170.39083008 -228.6445459 169.11369141 -228.46948242 167.79785156 C-224.49251001 139.25660468 -217.97544811 110.47235486 -203.734375 85.16796875 C-202.89132813 83.59789063 -202.89132813 83.59789063 -202.03125 81.99609375 C-193.23200759 66.12456305 -181.1429954 52.14989719 -166.734375 41.16796875 C-165.97898437 40.5853125 -165.22359375 40.00265625 -164.4453125 39.40234375 C-132.05299608 15.5811901 -91.27784364 7.25790063 -52.109375 2.91796875 C-51.36082245 2.83488464 -50.6122699 2.75180054 -49.84103394 2.66619873 C-33.21088395 0.84707963 -16.72002286 0.00733151 0 0 Z M-37.734375 20.16796875 C-39.27586643 20.32564282 -40.81737116 20.48318692 -42.35888672 20.640625 C-81.91695955 24.74672984 -128.22243487 31.08119207 -158.734375 59.16796875 C-159.95060547 60.19277344 -159.95060547 60.19277344 -161.19140625 61.23828125 C-171.80708066 70.33743075 -179.9156761 81.00749562 -186.734375 93.16796875 C-187.06147461 93.74434082 -187.38857422 94.32071289 -187.72558594 94.91455078 C-198.32779949 113.85889627 -203.76491178 134.96590053 -207.734375 156.16796875 C-207.88213379 156.92722656 -208.02989258 157.68648437 -208.18212891 158.46875 C-210.29848041 169.51058393 -211.34682303 180.6688757 -212.359375 191.85546875 C-212.45330536 192.87418564 -212.45330536 192.87418564 -212.5491333 193.91348267 C-214.52093909 215.6010543 -214.9449778 237.33887477 -214.921875 259.10546875 C-214.92093842 260.25983429 -214.92000183 261.41419983 -214.91903687 262.60354614 C-214.85207706 300.9002679 -213.79182093 341.19334938 -202.734375 378.16796875 C-202.43047852 379.2038916 -202.12658203 380.23981445 -201.81347656 381.30712891 C-195.85678198 401.26753386 -188.29141265 421.02742015 -174.734375 437.16796875 C-173.52394531 438.62009766 -173.52394531 438.62009766 -172.2890625 440.1015625 C-147.69533765 468.6724753 -112.54750175 480.01658771 -76.734375 487.16796875 C-75.90389648 487.33425781 -75.07341797 487.50054687 -74.21777344 487.671875 C-63.25553453 489.79267416 -52.15546553 490.78422157 -41.046875 491.79296875 C-40.02761429 491.88703506 -40.02761429 491.88703506 -38.98776245 491.98300171 C-17.32720516 493.95214328 4.4006917 494.40109875 26.140625 494.41796875 C27.29685364 494.4196405 28.45308228 494.42131226 29.64434814 494.42303467 C45.68838423 494.42440955 61.64034052 493.9938276 77.640625 492.79296875 C78.48332947 492.72984497 79.32603394 492.66672119 80.1942749 492.60168457 C94.28654764 491.51592471 108.41674158 490.19458351 122.265625 487.29296875 C123.10899414 487.11862305 123.95236328 486.94427734 124.82128906 486.76464844 C127.30535021 486.24381204 129.7859586 485.70930437 132.265625 485.16796875 C132.94560547 485.02133789 133.62558594 484.87470703 134.32617188 484.72363281 C159.06920788 479.28518886 184.61263712 470.67523274 204.265625 454.16796875 C205.23371094 453.36101562 206.20179688 452.5540625 207.19921875 451.72265625 C245.61583113 418.65379349 254.99969581 365.13240871 259.265625 317.16796875 C259.37148926 315.98509277 259.47735352 314.8022168 259.58642578 313.58349609 C261.2670688 293.65282778 261.47167938 273.72380871 261.515625 253.73046875 C261.52089203 252.51632294 261.52615906 251.30217712 261.53158569 250.05123901 C261.60993308 226.69325834 260.12213632 203.54859461 257.390625 180.35546875 C257.2622374 179.25481583 257.2622374 179.25481583 257.1312561 178.13192749 C253.90095854 150.64464883 248.68276948 124.12743053 236.265625 99.16796875 C235.81703125 98.2543457 235.81703125 98.2543457 235.359375 97.32226562 C219.7099493 65.77889195 192.17112734 45.25602274 159.265625 34.16796875 C152.00798708 31.86603277 144.66860063 29.94030001 137.265625 28.16796875 C136.47849121 27.97750977 135.69135742 27.78705078 134.88037109 27.59082031 C80.06795584 14.66766293 17.93107356 14.23799724 -37.734375 20.16796875 Z " fill="#209652" transform="translate(232.734375,-0.16796875)"/>
<path d="M0 0 C15.87397004 -0.06976816 31.74788481 -0.12314702 47.62197018 -0.15543652 C54.99437147 -0.17083477 62.36667511 -0.19178758 69.73901367 -0.22631836 C76.17281291 -0.25643854 82.60654135 -0.27562601 89.04040915 -0.28226548 C92.4397936 -0.28613993 95.83897571 -0.29509364 99.2382946 -0.31719017 C113.48687843 -0.39949085 127.08277486 -0.30244679 141 3 C141.86185913 3.19207031 142.72371826 3.38414063 143.61169434 3.58203125 C175.08947303 11.05541119 203.08670267 32.76378513 220 60 C235.74841798 86.24031703 241.81665792 117.90675335 235.03125 148.03515625 C227.97513877 176.04259774 213.15801727 199.75370546 190.90234375 218.27734375 C188.68497024 220.28527335 186.81595568 222.47427399 184.875 224.75 C164.67427737 247.54499352 132.91485674 261.0879343 103 264 C97.06 264 91.12 264 85 264 C85 279.18 85 294.36 85 310 C79.06 310 73.12 310 67 310 C67 316.27 67 322.54 67 329 C38.62 329 10.24 329 -19 329 C-19 226.37 -19 123.74 -19 18 C-12.73 18 -6.46 18 0 18 C0 12.06 0 6.12 0 0 Z M18 18 C18 108.42 18 198.84 18 292 C34.17 292 50.34 292 67 292 C67 270.55 67 249.1 67 227 C94.3125 227.25 94.3125 227.25 102.8059082 227.36035156 C120.67295825 227.49729486 137.30087956 226.37324201 153.75 218.875 C154.62068115 218.48812012 155.4913623 218.10124023 156.38842773 217.70263672 C169.66938864 211.60753924 180.70495756 203.29504244 191 193 C191.65355469 192.34644531 192.30710937 191.69289063 192.98046875 191.01953125 C212.54528753 170.02204839 219.92997538 142.61855772 219.13183594 114.61962891 C217.82101977 88.57322616 204.08069842 63.91654955 185.484375 46.14453125 C173.11155653 35.46422097 159.28972224 27.94840258 143.875 22.625 C142.85647949 22.26680176 142.85647949 22.26680176 141.81738281 21.90136719 C106.12170256 10.29397187 36.11630522 18 18 18 Z " fill="#242A2F" transform="translate(156,101)"/>
<path d="M0 0 C69.09853717 0 69.09853717 0 87.3046875 18.08203125 C91.29238424 22.39914642 94.29870738 26.79139055 97 32 C97.5053125 32.90363281 98.010625 33.80726563 98.53125 34.73828125 C102.0774684 42.17548928 102.45587526 49.03685227 102.5 57.1875 C102.50636475 58.19707764 102.51272949 59.20665527 102.51928711 60.24682617 C102.25581957 75.80159312 95.70840066 88.26782495 84.9296875 99.265625 C62.06596903 121.35455965 29.56685524 115 0 115 C0 77.05 0 39.1 0 0 Z " fill="#24292E" transform="translate(223,166)"/>
<path d="M0 0 C14.91057648 0 26.22451495 2.14666198 37.37109375 12.20703125 C40.58144145 15.74072332 42.81643136 19.77843397 45 24 C45.34289062 24.63679688 45.68578125 25.27359375 46.0390625 25.9296875 C49.85125712 34.23100849 49.15364375 45.50237239 46.25 54.00390625 C43.88698974 57.77733827 40.13212926 58.861337 36 60 C35.16891724 60.26369385 35.16891724 60.26369385 34.32104492 60.53271484 C31.06276908 61.18868833 27.93155638 61.11083951 24.609375 61.09765625 C23.31999023 61.09515869 22.03060547 61.09266113 20.70214844 61.09008789 C18.25083496 61.07643188 18.25083496 61.07643188 15.75 61.0625 C7.95375 61.0315625 7.95375 61.0315625 0 61 C0 40.87 0 20.74 0 0 Z " fill="#00A844" transform="translate(241,202)"/>
</svg>
